<?xml version="1.0" encoding="utf-8"?>
<!-- Generator: Adobe Illustrator 24.3.0, SVG Export Plug-In . SVG Version: 6.00 Build 0)  -->
<svg version="1.1" id="Layer_1" xmlns="http://www.w3.org/2000/svg" xmlns:xlink="http://www.w3.org/1999/xlink" x="0px" y="0px"
	 viewBox="0 0 800 800" enable-background="new 0 0 800 800" xml:space="preserve">
<g>
	<path fill="#787EBB" d="M459.865,70.964c57.945,0,105.089,47.144,105.089,105.091c0,57.947-47.144,105.089-105.089,105.089
		c-57.949,0-105.093-47.142-105.093-105.089C354.772,118.109,401.916,70.964,459.865,70.964z"/>
	<path fill="#BFC6E4" d="M233.645,499.583c-0.27-1.32-0.539-2.641-0.809-3.962v-0.095l-48.123-235.683
		c-0.109-3.756-0.801-7.561-1.475-11.246c-0.296-1.621-0.674-3.706-0.902-5.468h173.625c22.067,34.063,60.384,56.665,103.904,56.665
		s81.835-22.603,103.9-56.665h152.725c5.368,0,9.794,4.112,10.29,9.35l-51.324,202.364l-0.168,0.817
		c-4.112,25.673-6.183,25.837-14.698,26.511l-415.903,23.297C240.144,505.396,235.452,503.13,233.645,499.583z"/>
	<g>
		<path fill="#1D1751" d="M245.175,524.121l416.672-23.342c22.798-1.801,27.438-14.737,31.791-41.753l51.839-204.402v-1.163
			c0-15.98-13.004-28.981-28.986-28.981H573.727c6.353-14.881,9.877-31.248,9.877-48.424c0-68.23-55.509-123.741-123.739-123.741
			s-123.744,55.511-123.744,123.741c0,17.176,3.525,33.543,9.878,48.424H178.68c-0.438,0-0.768,0.106-1.18,0.133
			c-2.139-10.477-4.279-20.953-6.418-31.43c-1.167-5.715-1.267-14.702-4.066-19.914c-6.405-11.927-28.929-16.368-40.67-21.438
			c-19.174-8.279-38.347-16.559-57.521-24.838c-10.904-4.709-20.414,11.353-9.414,16.104c14.935,6.449,29.869,12.898,44.803,19.347
			c10.644,4.596,21.288,9.192,31.931,13.788c2.079,0.898,9.903,4.787,13.703,5.94c-0.001,0.024,0.006,0.047,0.004,0.071
			c-0.289,3.814,1.856,9.093,2.622,12.842c3.059,14.98,6.118,29.961,9.176,44.941c1.476,7.226,2.951,14.452,4.426,21.678v0.101
			l48.132,235.715c0.115,2.756,0.682,5.409,1.632,7.903c0.401,1.961,0.801,3.923,1.201,5.884
			c5.052,24.746,10.105,49.492,15.158,74.238c0.811,3.971,5.101,6.846,8.992,6.846c125.403,0,250.806,0,376.21,0
			c18.248,0,36.496,0,54.744,0c12,0,12.021-18.65,0-18.65c-125.403,0-250.806,0-376.21,0c-15.717,0-31.433,0-47.15,0
			c-3.42-16.744-6.838-33.489-10.257-50.233c2.063,0.394,4.195,0.614,6.386,0.614H245.175z M459.865,70.964
			c57.945,0,105.089,47.144,105.089,105.091c0,57.947-47.144,105.089-105.089,105.089c-57.949,0-105.093-47.142-105.093-105.089
			C354.772,118.109,401.916,70.964,459.865,70.964z M233.645,499.583c-0.27-1.32-0.539-2.641-0.809-3.962v-0.095l-48.123-235.683
			c-0.109-3.756-0.801-7.561-1.475-11.246c-0.296-1.621-0.674-3.706-0.902-5.468h173.625
			c22.067,34.063,60.384,56.665,103.904,56.665s81.835-22.603,103.9-56.665h152.725c5.368,0,9.794,4.112,10.29,9.35l-51.324,202.364
			l-0.168,0.817c-4.112,25.673-6.183,25.837-14.698,26.511l-415.903,23.297C240.144,505.396,235.452,503.13,233.645,499.583z"/>
	</g>
	<path fill="#1D1751" d="M586.809,320.928c-89.249,0-178.497,0-267.746,0c-12,0-12.02,18.65,0,18.65c89.249,0,178.497,0,267.746,0
		C598.81,339.578,598.829,320.928,586.809,320.928z"/>
	<path fill="#1D1751" d="M566.589,409.243c-75.768,0-151.537,0-227.305,0c-12.001,0-12.021,18.65,0,18.65
		c75.768,0,151.537,0,227.305,0C578.589,427.893,578.609,409.243,566.589,409.243z"/>
	<g>
		<path fill="#1D1751" d="M459.865,269.313c5.56,0,11.119-2.117,15.354-6.352l59.288-59.285c8.469-8.467,8.469-22.247,0-30.714
			l-2.732-2.732h-36.631V99.128c0-9.011-7.331-16.342-16.342-16.342h-37.878c-9.006,0-16.337,7.331-16.337,16.342v71.101h-36.635
			l-2.732,2.732c-8.469,8.467-8.469,22.247,0,30.714l59.288,59.285C448.742,267.195,454.301,269.313,459.865,269.313z
			 M397.559,188.88h45.678v-87.443h33.257v87.443h45.674c-0.109,0.59-0.392,1.154-0.847,1.61l-59.288,59.286
			c-1.193,1.197-3.146,1.188-4.339,0l-59.288-59.286C397.95,190.034,397.668,189.469,397.559,188.88z"/>
	</g>
	<path fill="#83C9EF" d="M397.559,188.88h45.678v-87.443h33.257v87.443h45.674c-0.109,0.59-0.392,1.154-0.847,1.61l-59.288,59.286
		c-1.193,1.197-3.146,1.188-4.339,0l-59.288-59.286C397.95,190.034,397.668,189.469,397.559,188.88z"/>
	<g>
		<g>
			<path fill="#1D1751" d="M288.404,691.959c0,30.728,24.997,55.727,55.727,55.727c30.73,0,55.727-25,55.727-55.727
				c0-30.728-24.997-55.727-55.727-55.727C313.401,636.232,288.404,661.231,288.404,691.959z M381.208,691.959
				c0,20.444-16.633,37.077-37.077,37.077c-20.444,0-37.077-16.633-37.077-37.077c0-20.444,16.633-37.077,37.077-37.077
				C364.575,654.882,381.208,671.515,381.208,691.959z"/>
		</g>
		<g>
			<path fill="#1D1751" d="M502.015,691.959c0,30.728,24.997,55.727,55.727,55.727c30.73,0,55.727-25,55.727-55.727
				c0-30.728-24.997-55.727-55.727-55.727C527.012,636.232,502.015,661.231,502.015,691.959z M594.819,691.959
				c0,20.444-16.633,37.077-37.077,37.077c-20.444,0-37.077-16.633-37.077-37.077c0-20.444,16.633-37.077,37.077-37.077
				C578.186,654.882,594.819,671.515,594.819,691.959z"/>
		</g>
		
			<ellipse transform="matrix(0.9352 -0.3542 0.3542 0.9352 -222.7932 166.7635)" fill="#83C9EF" cx="344.131" cy="691.959" rx="37.077" ry="37.077"/>
		
			<ellipse transform="matrix(0.7071 -0.7071 0.7071 0.7071 -325.9299 597.053)" fill="#83C9EF" cx="557.742" cy="691.959" rx="37.077" ry="37.077"/>
	</g>
</g>
</svg>
